<svg width="16" height="16" viewBox="0 0 16 16" fill="none" xmlns="http://www.w3.org/2000/svg">
<path fill-rule="evenodd" clip-rule="evenodd" d="M8 2C4.68629 2 2 4.68629 2 8C2 11.3137 4.68629 14 8 14C11.3137 14 14 11.3137 14 8C14 4.68629 11.3137 2 8 2ZM1 8C1 4.13401 4.13401 1 8 1C11.866 1 15 4.13401 15 8C15 11.866 11.866 15 8 15C4.13401 15 1 11.866 1 8Z" fill="#333333"/>
<path fill-rule="evenodd" clip-rule="evenodd" d="M12.6594 3.34632C12.8547 3.54153 12.8548 3.85811 12.6596 4.05342L4.05359 12.6634C3.85837 12.8587 3.54179 12.8588 3.34648 12.6636C3.15117 12.4684 3.1511 12.1518 3.34632 11.9565L11.9523 3.34648C12.1475 3.15117 12.4641 3.1511 12.6594 3.34632Z" fill="#333333"/>
</svg>
