<svg width="32" height="16" viewBox="0 0 32 16" fill="none" xmlns="http://www.w3.org/2000/svg">
<path d="M9.5 9.5C11.5 9.5 10.5 13.5 12.5 13.5" stroke="#333333" stroke-linecap="round" stroke-linejoin="round"/>
<path d="M13.5 9.5C11.5 9.5 10.5 13.5 8.5 13.5" stroke="#333333" stroke-linecap="round" stroke-linejoin="round"/>
<path d="M4.5 6.5H9.5" stroke="#333333" stroke-linecap="round" stroke-linejoin="round"/>
<path d="M10.5 3.5C10.5 3.23478 10.3946 2.98043 10.2071 2.79289C10.0196 2.60536 9.76522 2.5 9.5 2.5C5.833 2.5 7.5 13.5 3.5 13.5C3.23478 13.5 2.98043 13.3946 2.79289 13.2071C2.60536 13.0196 2.5 12.7652 2.5 12.5" stroke="#333333" stroke-linecap="round" stroke-linejoin="round"/>
<path d="M25.5 9.5C27.5 9.5 26.5 13.5 28.5 13.5" stroke="#333333" stroke-linecap="round" stroke-linejoin="round"/>
<path d="M29.5 9.5C27.5 9.5 26.5 13.5 24.5 13.5" stroke="#333333" stroke-linecap="round" stroke-linejoin="round"/>
<path d="M20.5 6.5H25.5" stroke="#333333" stroke-linecap="round" stroke-linejoin="round"/>
<path d="M26.5 3.5C26.5 3.23478 26.3946 2.98043 26.2071 2.79289C26.0196 2.60536 25.7652 2.5 25.5 2.5C21.833 2.5 23.5 13.5 19.5 13.5C19.2348 13.5 18.9804 13.3946 18.7929 13.2071C18.6054 13.0196 18.5 12.7652 18.5 12.5" stroke="#333333" stroke-linecap="round" stroke-linejoin="round"/>
<circle cx="30" cy="2" r="2" fill="#FF7A00"/>
</svg>
