<svg width="16" height="16" viewBox="0 0 16 16" fill="none" xmlns="http://www.w3.org/2000/svg">
<path d="M10 9.5L7 11L5.5 7H8L10 9.5Z" fill="#C95500"/>
<path d="M1 9.5L4 11L5.5 7H3L1 9.5Z" fill="#C95500"/>
<circle cx="5.5" cy="4.5" r="3" fill="#E56200" stroke="#B04E06"/>
<circle cx="12" cy="12" r="2.5" stroke="#5A5A5A"/>
<path d="M11 9C11 8.44772 11.4477 8 12 8V8C12.5523 8 13 8.44772 13 9V10H11V9Z" fill="#5A5A5A"/>
<path d="M9 13C8.44772 13 8 12.5523 8 12V12C8 11.4477 8.44772 11 9 11L10 11L10 13L9 13Z" fill="#5A5A5A"/>
<path d="M9.17187 10.5861C8.78135 10.1955 8.78135 9.56238 9.17187 9.17186V9.17186C9.5624 8.78134 10.1956 8.78134 10.5861 9.17186L11.2929 9.87866L9.87868 11.2929L9.17187 10.5861Z" fill="#5A5A5A"/>
<path d="M13.4139 9.17189C13.8044 8.78136 14.4376 8.78137 14.8281 9.17189V9.17189C15.2186 9.56241 15.2186 10.1956 14.8281 10.5861L14.1213 11.2929L12.7071 9.87869L13.4139 9.17189Z" fill="#5A5A5A"/>
<path d="M11 15C11 15.5523 11.4477 16 12 16V16C12.5523 16 13 15.5523 13 15V14H11V15Z" fill="#5A5A5A"/>
<path d="M15 13C15.5523 13 16 12.5523 16 12V12C16 11.4477 15.5523 11 15 11L14 11L14 13L15 13Z" fill="#5A5A5A"/>
<path d="M13.4139 14.8281C13.8044 15.2186 14.4376 15.2186 14.8281 14.8281V14.8281C15.2186 14.4376 15.2186 13.8044 14.8281 13.4139L14.1213 12.7071L12.7071 14.1213L13.4139 14.8281Z" fill="#5A5A5A"/>
<circle cx="12" cy="12" r="2" fill="#D3D3D3"/>
<path d="M9.17187 13.4139C8.78135 13.8045 8.78135 14.4376 9.17187 14.8281V14.8281C9.5624 15.2187 10.1956 15.2187 10.5861 14.8281L11.2929 14.1213L9.87868 12.7071L9.17187 13.4139Z" fill="#5A5A5A"/>
<circle cx="12" cy="12" r="1" fill="#323232"/>
</svg>
