<svg width="16" height="16" viewBox="0 0 16 16" fill="none" xmlns="http://www.w3.org/2000/svg">
<path fill-rule="evenodd" clip-rule="evenodd" d="M4 6C3.44772 6 3 6.44772 3 7C3 7.55228 3.44772 8 4 8C4.55228 8 5 7.55228 5 7C5 6.44772 4.55228 6 4 6ZM2 7C2 5.89543 2.89543 5 4 5C5.10457 5 6 5.89543 6 7C6 8.10457 5.10457 9 4 9C2.89543 9 2 8.10457 2 7Z" fill="#333333"/>
<path fill-rule="evenodd" clip-rule="evenodd" d="M3.5 11C2.83696 11 2.20107 11.2634 1.73223 11.7322C1.38304 12.0814 1.14782 12.5233 1.0505 13H6.9495C6.85218 12.5233 6.61696 12.0814 6.26777 11.7322C5.79893 11.2634 5.16304 11 4.5 11H3.5ZM3.5 10C2.57174 10 1.6815 10.3687 1.02513 11.0251C0.368749 11.6815 0 12.5717 0 13.5C0 13.6326 0.0526784 13.7598 0.146447 13.8536C0.240215 13.9473 0.367392 14 0.5 14H7.5V14C7.77614 14 8 13.7761 8 13.5V13.5C8 12.5717 7.63125 11.6815 6.97487 11.0251C6.3185 10.3687 5.42826 10 4.5 10H3.5Z" fill="#333333"/>
<path fill-rule="evenodd" clip-rule="evenodd" d="M12 2C11.4477 2 11 2.44772 11 3C11 3.55228 11.4477 4 12 4C12.5523 4 13 3.55228 13 3C13 2.44772 12.5523 2 12 2ZM10 3C10 1.89543 10.8954 1 12 1C13.1046 1 14 1.89543 14 3C14 4.10457 13.1046 5 12 5C10.8954 5 10 4.10457 10 3Z" fill="#333333"/>
<path fill-rule="evenodd" clip-rule="evenodd" d="M11.5 7C10.837 7 10.2011 7.26339 9.73223 7.73223C9.38304 8.08142 9.14782 8.52328 9.0505 9H14.9495C14.8522 8.52328 14.617 8.08142 14.2678 7.73223C13.7989 7.26339 13.163 7 12.5 7H11.5ZM11.5 6C10.5717 6 9.6815 6.36875 9.02513 7.02513C8.36875 7.6815 8 8.57174 8 9.5C8 9.77614 8.22386 10 8.5 10H15.5V10C15.7761 10 16 9.77614 16 9.5V9.5C16 8.57174 15.6313 7.6815 14.9749 7.02513C14.3185 6.36875 13.4283 6 12.5 6H11.5Z" fill="#333333"/>
</svg>
