<svg width="48" height="48" viewBox="0 0 48 48" fill="none" xmlns="http://www.w3.org/2000/svg">
<path d="M45.521 39.04L27.527 5.13399C27.1897 4.49041 26.6828 3.95138 26.0611 3.5753C25.4394 3.19921 24.7266 3.0004 24 3.0004C23.2734 3.0004 22.5606 3.19921 21.9389 3.5753C21.3172 3.95138 20.8103 4.49041 20.473 5.13399L2.479 39.04C2.14652 39.6613 1.98163 40.3584 2.00057 41.0628C2.0195 41.7672 2.22162 42.4545 2.587 43.057C2.93893 43.6502 3.43948 44.1415 4.03923 44.4822C4.63898 44.8229 5.31722 45.0014 6.007 45H41.993C42.6828 45.0014 43.361 44.8229 43.9608 44.4822C44.5605 44.1415 45.0611 43.6502 45.413 43.057C45.7784 42.4545 45.9805 41.7672 45.9994 41.0628C46.0184 40.3584 45.8535 39.6613 45.521 39.04V39.04Z" fill="#F1C232"/>
<path d="M26.286 16L25.143 32.571H22.857L21.714 16H26.286Z" fill="white"/>
<path d="M24 41C25.6569 41 27 39.6569 27 38C27 36.3431 25.6569 35 24 35C22.3431 35 21 36.3431 21 38C21 39.6569 22.3431 41 24 41Z" fill="white"/>
</svg>
