<svg width="16" height="16" viewBox="0 0 16 16" fill="none" xmlns="http://www.w3.org/2000/svg">
<path d="M12.5 14.5H3.5C3.23478 14.5 2.98043 14.3946 2.79289 14.2071C2.60536 14.0196 2.5 13.7652 2.5 13.5V7.5C2.5 7.23478 2.60536 6.98043 2.79289 6.79289C2.98043 6.60536 3.23478 6.5 3.5 6.5H12.5C12.7652 6.5 13.0196 6.60536 13.2071 6.79289C13.3946 6.98043 13.5 7.23478 13.5 7.5V13.5C13.5 13.7652 13.3946 14.0196 13.2071 14.2071C13.0196 14.3946 12.7652 14.5 12.5 14.5Z" stroke="#333333" stroke-linecap="round" stroke-linejoin="round"/>
<path d="M4.5 6.5V4C4.5 3.07174 4.86875 2.1815 5.52513 1.52513C6.1815 0.868749 7.07174 0.5 8 0.5C8.92826 0.5 9.8185 0.868749 10.4749 1.52513C11.1313 2.1815 11.5 3.07174 11.5 4V6.5" stroke="#333333" stroke-linecap="round" stroke-linejoin="round"/>
<path d="M8 12.5C8.82843 12.5 9.5 11.8284 9.5 11C9.5 10.1716 8.82843 9.5 8 9.5C7.17157 9.5 6.5 10.1716 6.5 11C6.5 11.8284 7.17157 12.5 8 12.5Z" stroke="#333333" stroke-linecap="round" stroke-linejoin="round"/>
</svg>
