<svg width="32" height="16" viewBox="0 0 32 16" fill="none" xmlns="http://www.w3.org/2000/svg">
<path d="M2.9 3.5C5.7 3.5 4.3 9.5 7.1 9.5M8.5 3.5C5.7 3.5 4.3 9.5 1.5 9.5" stroke="#333333" stroke-linecap="round" stroke-linejoin="round"/>
<path d="M9 13.1667C9 12.8905 8.77614 12.6667 8.5 12.6667C8.22386 12.6667 8 12.8905 8 13.1667H9ZM14.9847 6.62267C15.0525 6.35496 14.8904 6.08303 14.6227 6.01528C14.355 5.94753 14.083 6.10963 14.0153 6.37733L14.9847 6.62267ZM11.2695 6.6267C11.3395 6.35957 11.1797 6.08629 10.9125 6.01632C10.6454 5.94634 10.3721 6.10617 10.3022 6.3733L11.2695 6.6267ZM13 11C13.2761 11 13.5 10.7761 13.5 10.5C13.5 10.2239 13.2761 10 13 10V11ZM9.78647 14C9.58377 14 9.3856 13.9167 9.23662 13.7623L8.51698 14.4566C8.85051 14.8023 9.30678 15 9.78647 15V14ZM9.23662 13.7623C9.08705 13.6073 9 13.3933 9 13.1667H8C8 13.6472 8.18403 14.1116 8.51698 14.4566L9.23662 13.7623ZM14.0153 6.37733C13.7412 7.46049 13.5125 8.53564 13.2889 9.46514C13.0605 10.4146 12.8302 11.2449 12.538 11.9331C12.246 12.6208 11.9069 13.1307 11.4819 13.47C11.0674 13.801 10.5331 14 9.78647 14V15C10.7293 15 11.4916 14.7419 12.1059 14.2514C12.7098 13.7693 13.1318 13.0934 13.4585 12.3239C13.7849 11.555 14.0307 10.6568 14.2612 9.69906C14.4964 8.72143 14.7093 7.71089 14.9847 6.62267L14.0153 6.37733ZM10.3022 6.3733C10.1019 7.13773 9.97625 7.80103 9.94928 8.36682C9.92241 8.9308 9.99132 9.43987 10.2213 9.86354C10.7061 10.7567 11.7341 11 13 11V10C11.7659 10 11.2939 9.74333 11.1002 9.38646C10.9909 9.18513 10.9259 8.8817 10.9481 8.41443C10.9703 7.94897 11.0768 7.36227 11.2695 6.6267L10.3022 6.3733Z" fill="#333333"/>
<path d="M18.9 3.5C21.7 3.5 20.3 9.5 23.1 9.5M24.5 3.5C21.7 3.5 20.3 9.5 17.5 9.5" stroke="#333333" stroke-linecap="round" stroke-linejoin="round"/>
<path d="M25 13.1667C25 12.8905 24.7761 12.6667 24.5 12.6667C24.2239 12.6667 24 12.8905 24 13.1667H25ZM30.9847 6.62267C31.0525 6.35496 30.8904 6.08303 30.6227 6.01528C30.355 5.94753 30.083 6.10963 30.0153 6.37733L30.9847 6.62267ZM27.2695 6.6267C27.3395 6.35957 27.1797 6.08629 26.9125 6.01632C26.6454 5.94634 26.3721 6.10617 26.3022 6.3733L27.2695 6.6267ZM29 11C29.2761 11 29.5 10.7761 29.5 10.5C29.5 10.2239 29.2761 10 29 10V11ZM25.7865 14C25.5838 14 25.3856 13.9167 25.2366 13.7623L24.517 14.4566C24.8505 14.8023 25.3068 15 25.7865 15V14ZM25.2366 13.7623C25.087 13.6073 25 13.3933 25 13.1667H24C24 13.6472 24.184 14.1116 24.517 14.4566L25.2366 13.7623ZM30.0153 6.37733C29.7412 7.46049 29.5125 8.53564 29.2889 9.46514C29.0605 10.4146 28.8302 11.2449 28.538 11.9331C28.246 12.6208 27.9069 13.1307 27.4819 13.47C27.0674 13.801 26.5331 14 25.7865 14V15C26.7293 15 27.4916 14.7419 28.1059 14.2514C28.7098 13.7693 29.1318 13.0934 29.4585 12.3239C29.7849 11.555 30.0307 10.6568 30.2612 9.69906C30.4964 8.72143 30.7093 7.71089 30.9847 6.62267L30.0153 6.37733ZM26.3022 6.3733C26.1019 7.13773 25.9762 7.80103 25.9493 8.36682C25.9224 8.9308 25.9913 9.43987 26.2213 9.86354C26.7061 10.7567 27.7341 11 29 11V10C27.7659 10 27.2939 9.74333 27.1002 9.38646C26.9909 9.18513 26.9259 8.8817 26.9481 8.41443C26.9703 7.94897 27.0768 7.36227 27.2695 6.6267L26.3022 6.3733Z" fill="#333333"/>
<circle cx="30" cy="2" r="2" fill="#FF7A00"/>
</svg>
