<svg width="15" height="21" viewBox="0 0 15 21" fill="none" xmlns="http://www.w3.org/2000/svg">
<path d="M7.80273 5.28288V7.88952L4.30273 4.414L7.80273 0.938477V3.54512C11.6702 3.54512 14.8027 6.65571 14.8027 10.4962C14.8027 11.8603 14.4002 13.1289 13.7177 14.1976L12.4402 12.929C12.834 12.2079 13.0527 11.3737 13.0527 10.4962C13.0527 7.62017 10.699 5.28288 7.80273 5.28288ZM1.88773 6.79473L3.16524 8.0633C2.78024 8.79316 2.55273 9.6186 2.55273 10.4962C2.55273 13.3722 4.90648 15.7095 7.80273 15.7095V13.1028L11.3027 16.5783L7.80273 20.0539V17.4472C3.93523 17.4472 0.802734 14.3366 0.802734 10.4962C0.802734 9.13202 1.20523 7.86346 1.88773 6.79473V6.79473Z" fill="#666666"/>
</svg>
